<svg xmlns="http://www.w3.org/2000/svg" viewBox="0 0 275.7 94.79"><defs><style>.cls-1{fill:#fff;}</style></defs><g id="Layer_2" data-name="Layer 2"><g id="Layer_1-2" data-name="Layer 1"><path class="cls-1" d="M252.27,78.78l4.37-12.15L261,78.78Zm9.6-20.7H251.6L237.77,94.13h9l2.73-7.57H263.8l2.73,7.57h9.17Zm-46.28,7.57a9.64,9.64,0,0,1,8.58,4.76l7.54-4.32c-3.06-5.46-9.14-8.68-16-8.68-11.12,0-19,7.78-19,18.69s7.85,18.69,19,18.69c6.91,0,12.39-3.06,15.69-8l-7.06-5a10.14,10.14,0,0,1-8.7,4.74c-5.33,0-9.94-3.76-9.94-10.46,0-6.17,4.22-10.45,9.91-10.45M177.88,94.13h8.59v-36h-8.59ZM146.74,73.4V65.88h7c3,0,5,1.19,5,3.73s-1.9,3.79-5,3.79Zm20.73-3.79c0-7.1-4.74-11.53-13.65-11.53H138.14V94.13h8.6V80.64H148l9.5,13.49h10.25L157.4,80.38c6.46-1,10.07-5,10.07-10.77M107.72,79.79h17.79V72.06H107.72V65.83h18.9V58.08H99.12V94.13h27.6V86.38h-19ZM66.68,81,58.47,58.08H46.29V94.13h8.6V69.54L62.1,90.73h9.14l7.21-21.27V94.13H87v-36H74.84ZM14.49,78.78l4.38-12.15,4.38,12.15Zm-.66-20.7L0,94.13H9l2.73-7.57H26l2.73,7.57h9.16l-13.82-36Zm227.8-38a10.87,10.87,0,0,1,4.64-3.42l1.38,3.92h.1a5.25,5.25,0,0,0,3.61-1.23,4,4,0,0,0,1.4-3.14,3.67,3.67,0,0,0-3.83-3.83,6.91,6.91,0,0,0-4.12,1.78,24.54,24.54,0,0,0-4.67,5.14l1.43-6.92h-1.79l-8.87,2.06v1.82l4.27.62-4.12,20.9h6.34l2-12A13.07,13.07,0,0,1,241.63,20m-29.91-1.21q2.06-3.79,5-3.8a3.66,3.66,0,0,1,3.35,1.83,10.73,10.73,0,0,1,1.12,5.51,19.24,19.24,0,0,1-2.08,9.41q-2.1,3.77-5.08,3.77a3.6,3.6,0,0,1-3.26-1.83,10.34,10.34,0,0,1-1.12-5.36,19.86,19.86,0,0,1,2.05-9.53m-7.5,2.78A15.68,15.68,0,0,0,203,27.56a10.71,10.71,0,0,0,2.82,7.79,10.16,10.16,0,0,0,7.64,2.89,13.85,13.85,0,0,0,5.41-1.07,13.49,13.49,0,0,0,4.47-3A15.92,15.92,0,0,0,226.68,29a16.11,16.11,0,0,0,1.17-6.07A10.52,10.52,0,0,0,225,15.2a10.24,10.24,0,0,0-7.64-2.86A13.71,13.71,0,0,0,212,13.42a13.4,13.4,0,0,0-4.5,3.09,15.49,15.49,0,0,0-3.29,5.1m-.46-7.91h-7a49.73,49.73,0,0,1,1.71-7.09,13.36,13.36,0,0,1,2.09-4.2l4.32,4.53a4.55,4.55,0,0,0,2.4-1.26,3,3,0,0,0,.9-2.14A3,3,0,0,0,206.77,1a5.9,5.9,0,0,0-3.56-1,10.4,10.4,0,0,0-7.73,3.67A18,18,0,0,0,191,13.12l-4,1.76-.05,2.27,3.45-.43-2.22,15.76a80.26,80.26,0,0,1-1.62,8.7,12.61,12.61,0,0,1-1.72,4.08l-5.51-2.95a3.27,3.27,0,0,0-1.53,1.27,3.67,3.67,0,0,0-.53,2,3,3,0,0,0,1,2.3,3.65,3.65,0,0,0,2.54.9,8.82,8.82,0,0,0,5.13-1.9,18.43,18.43,0,0,0,4.75-5.24A22.37,22.37,0,0,0,193,36.68a40.12,40.12,0,0,0,1.46-6.51l1.88-13.45h7.47ZM165.88,30h-19V23.4h17.79V15.67H146.87V9.44h18.9V1.69h-27.5V37.74h27.61Zm-56.75-.21h-6.64V9.65h6.64c6.7,0,9.91,4.17,9.91,10.06s-3.21,10.07-9.91,10.07m.18-28.09H93.89V37.74h15.42c11.28,0,18.72-7.16,18.72-18s-7.44-18-18.72-18M63.62,9.26c5.87,0,10,4.28,10,10.45s-4.17,10.46-10,10.46-10-4.28-10-10.46,4.17-10.45,10-10.45m0,29.15c11.12,0,19-7.93,19-18.7S74.74,1,63.62,1s-19,7.93-19,18.69,7.87,18.7,19,18.7m-43.18,0c6.9,0,12.39-3.07,15.68-8l-7-5a10.14,10.14,0,0,1-8.71,4.74c-5.33,0-9.93-3.76-9.93-10.46,0-6.17,4.22-10.45,9.91-10.45A9.63,9.63,0,0,1,28.91,14L36.46,9.7C33.39,4.24,27.32,1,20.44,1c-11.12,0-19,7.78-19,18.69s7.85,18.7,19,18.7"/></g></g></svg>